<?xml version="1.0" encoding="UTF-8"?>
<svg id="Layer_2" data-name="Layer 2" xmlns="http://www.w3.org/2000/svg" viewBox="0 0 904 904">
  <defs>
    <style>
      .cls-1 {
        fill: #ced5d8;
      }

      .cls-2 {
        fill: #a6afb2;
      }
    </style>
  </defs>
  <g id="objects">
    <g>
      <path class="cls-1" d="m904,452c0,143.23-66.62,270.9-170.57,353.71-77.21,61.53-175.03,98.29-281.43,98.29s-204.22-36.76-281.43-98.29C66.62,722.9,0,595.23,0,452,0,202.37,202.37,0,452,0s452,202.37,452,452Z"/>
      <path class="cls-2" d="m627.75,367.12c0,113.84-78.68,151.88-175.75,151.88s-175.75-38.04-175.75-151.88,78.68-206.12,175.75-206.12,175.75,92.28,175.75,206.12Z"/>
      <path class="cls-2" d="m733.43,805.71c-77.21,61.53-175.03,98.29-281.43,98.29s-204.22-36.76-281.43-98.29c0-147.71,148.72-208.71,281.43-208.71s281.43,77,281.43,208.71Z"/>
    </g>
  </g>
</svg>